<?xml version="1.0" encoding="UTF-8" standalone="no"?>
<!-- Created with Inkscape (http://www.inkscape.org/) -->

<svg
   xmlns:dc="http://purl.org/dc/elements/1.1/"
   xmlns:cc="http://creativecommons.org/ns#"
   xmlns:rdf="http://www.w3.org/1999/02/22-rdf-syntax-ns#"
   xmlns:svg="http://www.w3.org/2000/svg"
   xmlns="http://www.w3.org/2000/svg"
   xmlns:sodipodi="http://sodipodi.sourceforge.net/DTD/sodipodi-0.dtd"
   xmlns:inkscape="http://www.inkscape.org/namespaces/inkscape"
   width="176.3688mm"
   height="79.366615mm"
   viewBox="0 0 624.92884 281.22029"
   id="svg2"
   version="1.1"
   inkscape:version="0.91 r"
   sodipodi:docname="hobbies_logo.svg">
  <defs
     id="defs4" />
  <sodipodi:namedview
     id="base"
     pagecolor="#ffffff"
     bordercolor="#666666"
     borderopacity="1.0"
     inkscape:pageopacity="0.0"
     inkscape:pageshadow="2"
     inkscape:zoom="1"
     inkscape:cx="462.7205"
     inkscape:cy="141.05355"
     inkscape:document-units="px"
     inkscape:current-layer="layer1"
     showgrid="false"
     fit-margin-top="0"
     fit-margin-left="0"
     fit-margin-right="0"
     fit-margin-bottom="0"
     inkscape:window-width="1920"
     inkscape:window-height="1003"
     inkscape:window-x="0"
     inkscape:window-y="25"
     inkscape:window-maximized="1" />
  <metadata
     id="metadata7">
    <rdf:RDF>
      <cc:Work
         rdf:about="">
        <dc:format>image/svg+xml</dc:format>
        <dc:type
           rdf:resource="http://purl.org/dc/dcmitype/StillImage" />
        <dc:title></dc:title>
      </cc:Work>
    </rdf:RDF>
  </metadata>
  <g
     inkscape:label="Layer 1"
     inkscape:groupmode="layer"
     id="layer1"
     transform="translate(-44.878503,-632.19545)">
    <path
       style="fill:#c80409"
       d="m 92.947881,893.03992 c 0,-19.69907 -0.267504,-20.56519 -8.053696,-26.07609 -22.854933,-16.17623 -40.015682,-56.36744 -40.015682,-93.71846 0,-38.47351 11.492807,-67.83273 35.384403,-90.39205 l 12.684975,-11.97762 0,-19.34009 0,-19.34009 93.690779,0 c 73.76529,0 93.45431,0.67964 92.57888,3.19568 -0.85335,2.4526 -21.70777,3.35232 -89.685,3.86929 l -88.5731,0.6736 0,19.13964 c 0,11.87257 -1.083339,19.13965 -2.853248,19.13965 -5.337546,0 -25.394692,22.49746 -32.273289,36.19992 -9.47869,18.88196 -13.364223,35.8923 -13.338091,58.39234 0.04234,36.45319 11.826018,65.11623 34.953675,85.02254 l 13.510953,11.62907 0,18.14443 0,18.14443 256.37002,0 256.37001,0 0,-10.14596 c 0,-7.96828 0.85978,-9.83011 4.00578,-8.6744 2.80547,1.03063 4.00579,5.21989 4.00579,13.98079 l 0,12.50921 -264.38158,0 -264.381579,0 z m 14.026069,-3.91137 c 0.0296,-5.6244 0.57652,-7.62426 1.21529,-4.44415 0.63877,3.18012 0.61452,7.7819 -0.0539,10.22619 -0.66841,2.44429 -1.19104,-0.15763 -1.1614,-5.78204 z m 8.05655,7.17626 c 2.59833,-0.64819 6.20354,-0.60557 8.01157,0.0946 1.80803,0.70031 -0.31788,1.23064 -4.72424,1.17854 -4.40636,-0.0521 -5.88566,-0.62507 -3.28733,-1.27326 z m 21.41693,0.18126 c 0.77055,-0.73767 16.83524,-1.66521 35.6993,-2.06122 18.86406,-0.39606 39.7061,-1.31844 46.31564,-2.04979 6.60954,-0.73135 9.10395,-0.8024 5.54313,-0.15799 -4.61401,0.83514 -5.47045,1.76573 -2.98072,3.23878 1.92142,1.13682 -16.63768,2.13541 -41.24243,2.21909 -24.60476,0.0836 -44.10547,-0.45139 -43.33492,-1.18905 z m 94.86682,-0.15595 c 1.92778,-0.73851 4.23111,-0.6477 5.1185,0.20171 0.88739,0.84954 -0.68989,1.45375 -3.50506,1.34275 -3.111,-0.12272 -3.7438,-0.72846 -1.61344,-1.54457 z m 13.1857,-0.0578 c 3.30477,-0.60938 8.71257,-0.60938 12.01734,0 3.30477,0.60935 0.60087,1.10793 -6.00867,1.10793 -6.60954,0 -9.31344,-0.49858 -6.00867,-1.10793 z m 22.75025,0.0325 c 2.59833,-0.64819 6.20353,-0.60557 8.01156,0.0946 1.80803,0.70031 -0.31787,1.23064 -4.72423,1.17854 -4.40636,-0.0521 -5.88566,-0.62507 -3.28733,-1.27326 z m 22.6486,-0.10027 c 6.24235,-0.53823 16.45709,-0.53823 22.69943,0 6.24234,0.53825 1.13497,0.97865 -11.34971,0.97865 -12.48469,0 -17.59206,-0.4404 -11.34972,-0.97865 z m 52.18623,-0.0263 c 9.97538,-0.49324 25.59793,-0.48956 34.71677,0.008 9.11882,0.49771 0.95714,0.90126 -18.13708,0.89678 -19.09423,-0.005 -26.5551,-0.41168 -16.57969,-0.90491 z m 65.36453,0.0455 c 4.79986,-0.56898 12.01026,-0.55725 16.02312,0.0261 4.01286,0.58335 0.0857,1.04887 -8.72702,1.03453 -8.81272,-0.0153 -12.09597,-0.49162 -7.2961,-1.06061 z m 34.83585,0.10636 c 1.92777,-0.73851 4.23109,-0.64771 5.1185,0.20171 0.88739,0.84954 -0.6899,1.45375 -3.50505,1.34275 -3.11103,-0.12272 -3.74381,-0.72847 -1.61345,-1.54457 z m 21.19726,-0.10303 c 4.77355,-0.5671 12.58483,-0.5671 17.35838,0 4.77356,0.56712 0.86792,1.03113 -8.67919,1.03113 -9.54711,0 -13.45275,-0.46401 -8.67919,-1.03113 z m 49.40464,-0.0509 c 11.38309,-0.47922 30.00997,-0.47922 41.39307,0 11.3831,0.47923 2.06965,0.87132 -20.69654,0.87132 -22.76619,0 -32.07963,-0.39209 -20.69653,-0.87132 z m 65.42776,0.20708 c 1.83598,-0.70921 4.84032,-0.70921 6.6763,0 1.83599,0.70921 0.33382,1.2895 -3.33815,1.2895 -3.67197,0 -5.17413,-0.58029 -3.33815,-1.2895 z m 13.3526,0 c 1.83599,-0.70921 4.84032,-0.70921 6.67631,0 1.83598,0.70921 0.33381,1.2895 -3.33815,1.2895 -3.67197,0 -5.17414,-0.58029 -3.33816,-1.2895 z M 283.89013,874.05339 c 101.20017,-33.61288 139.02839,-41.33877 190.94225,-38.99731 45.43483,2.04924 81.10113,11.41501 110.15899,28.92715 8.45273,5.09416 10.01446,7.42577 10.01446,14.95119 l 0,8.91586 -171.91479,0 c -94.55314,0 -175.97064,0.68761 -180.9278,1.528 -4.95715,0.84038 13.81995,-6.0558 41.72689,-15.32489 z m 104.8383,-1.94535 c 2.1318,-2.04083 4.16278,-2.149 6.54278,-0.34848 1.89823,1.43607 7.35696,2.5761 12.13052,2.53341 6.95951,-0.0622 8.69679,-1.13293 8.76804,-5.40375 0.0876,-5.25104 0.15943,-5.24503 5.10147,0.42609 7.62845,8.754 10.83281,7.05247 10.83281,-5.75223 0,-6.32746 -1.20174,-11.50447 -2.67053,-11.50447 -1.46878,0 -2.7086,3.16373 -2.75512,7.03051 l -0.0847,7.0305 -5.47919,-7.0305 c -7.2678,-9.32556 -11.7617,-8.88337 -12.56718,1.23658 -1.03133,12.95725 -5.03585,14.00294 -8.70673,2.27357 -4.4564,-14.23931 -10.69311,-13.87362 -16.4374,0.96381 -3.34811,8.6481 -3.62374,11.50446 -1.11014,11.50446 1.83911,0 4.73497,-1.33178 6.43527,-2.9595 z m 0.64728,-7.26669 c 0,-1.4061 1.20173,-2.55655 2.67052,-2.55655 1.46879,0 2.67052,1.15045 2.67052,2.55655 0,1.4061 -1.20173,2.55655 -2.67052,2.55655 -1.46879,0 -2.67052,-1.15045 -2.67052,-2.55655 z m 57.28508,3.19568 -1.56813,-7.0305 5.74578,7.0305 c 8.74003,10.69427 13.31186,9.15774 13.31186,-4.47395 0,-8.41256 -1.05406,-11.50447 -3.92198,-11.50447 -2.26298,0 -3.31559,1.51273 -2.48845,3.57623 2.33716,5.83064 -3.7489,7.24893 -6.90215,1.60847 -5.31182,-9.50165 -10.72211,-6.31275 -10.72211,6.31977 0,8.58595 1.02911,11.50446 4.05665,11.50446 3.02525,0 3.65798,-1.78751 2.48853,-7.03051 z m 43.25579,3.86004 c 4.03233,-6.24598 3.71507,-19.83846 -0.46304,-19.83846 -2.72145,0 -3.93907,2.76592 -3.93907,8.94792 0,6.24934 -1.2081,8.94792 -4.00579,8.94792 -2.79769,0 -4.00578,-2.69858 -4.00578,-8.94792 0,-6.24934 -1.20809,-8.94792 -4.00578,-8.94792 -4.1612,0 -5.55233,11.06284 -2.3848,18.96502 1.93757,4.83371 15.83095,5.47905 18.80426,0.87344 z m 15.7706,0.39117 c 1.29205,-2.00138 2.60688,-2.00138 4.6975,0 5.42516,5.19363 9.6506,3.03174 9.07141,-4.64126 -0.30807,-4.0813 -1.32479,-6.97036 -2.25939,-6.42012 -0.9346,0.55024 -2.35161,-1.38758 -3.14887,-4.30626 -2.28636,-8.36986 -9.92712,-4.76069 -14.0624,6.64248 -4.54194,12.5245 -4.5472,11.50446 0.0593,11.50446 2.11649,0 4.6556,-1.25069 5.64245,-2.7793 z m 1.40229,-8.93821 c 0.12819,-2.97823 0.76094,-3.58402 1.61342,-1.54458 0.77144,1.84551 0.67658,4.05053 -0.2107,4.90005 -0.88742,0.84952 -1.51857,-0.66044 -1.40261,-3.35547 z m 34.50594,9.16096 c 0,-1.4061 -1.80261,-2.55654 -4.00579,-2.55654 -2.79769,0 -4.00578,-2.69858 -4.00578,-8.94792 0,-6.24934 -1.20809,-8.94792 -4.00578,-8.94792 -2.96724,0 -4.00578,2.98264 -4.00578,11.50447 0,11.07837 0.29672,11.50446 8.01156,11.50446 4.40636,0 8.01157,-1.15045 8.01157,-2.55655 z m -421.94232,11.19144 c 0,-2.9613 0.95494,-3.42516 3.33815,-1.62156 1.83598,1.38948 5.14075,3.16518 7.34393,3.94603 2.28314,0.80917 0.8476,1.50652 -3.33815,1.62154 -5.08055,0.13959 -7.34393,-1.07651 -7.34393,-3.94601 z m 486.24566,0.1 c 0.12818,-2.97825 0.76094,-3.58402 1.61342,-1.54458 0.77143,1.84549 0.67658,4.05051 -0.21071,4.90005 -0.88741,0.84952 -1.51856,-0.66046 -1.40261,-3.35547 z m -450.54858,-7.11184 c -39.4577,-7.70753 -59.369328,-38.15496 -38.20326,-58.4177 13.84361,-13.25279 1.37716,-15.55044 -14.13235,-2.60468 -2.54165,2.12151 -5.377319,7.71584 -6.30149,12.43185 -2.065547,10.54042 -4.670832,9.22696 -13.032936,-6.57059 -22.000345,-41.56269 -10.928642,-101.12359 23.307416,-125.38368 12.55243,-8.89481 12.66554,-9.10628 12.66554,-23.67986 l 0,-14.70489 68.76592,0.0919 68.76591,0.0919 -8.01156,6.32456 c -4.40636,3.4785 -11.9172,7.6948 -16.69076,9.36955 l -8.67919,3.04502 -0.33382,27.60844 c -0.18359,15.18465 -0.63425,28.75889 -1.00144,30.16499 -0.3672,1.4061 -0.81785,5.18462 -1.00145,8.39671 -0.29402,5.14391 -11.8148,14.61222 -17.77974,14.61222 -2.0142,0 0.72092,-59.27435 3.09665,-67.10937 2.35085,-7.75295 -3.5808,-4.85689 -9.40392,4.59136 -3.28992,5.33801 -9.80957,10.87509 -15.85668,13.46692 l -10.26956,4.40159 5.52456,10.18115 c 3.49106,6.43365 5.90717,16.63669 6.56405,27.71949 l 1.0395,17.53833 -11.6677,-1.33362 c -6.41723,-0.7335 -15.20764,-2.18784 -19.53425,-3.23187 l -7.86655,-1.89824 5.66811,8.70246 c 6.52739,10.02174 14.93653,15.00233 25.42049,15.05614 4.03916,0.0207 7.32307,0.90052 7.29756,1.9551 -0.2487,10.2845 -9.30105,39.00741 -16.4142,52.08198 -4.87906,8.96811 -9.33781,17.33388 -9.90834,18.5906 -1.17821,2.59528 34.65804,0.71091 39.35744,-2.06953 1.96314,-1.1615 3.0346,-11.55869 3.0346,-29.44701 0,-36.21133 1.54258,-42.94031 10.90649,-47.57592 10.73345,-5.3136 11.23762,-4.93489 9.50767,7.1416 -0.85604,5.97593 -1.79092,23.52024 -2.07752,38.98735 -0.51784,27.94731 -0.48298,28.11787 5.61155,27.45323 3.37294,-0.36784 11.28552,-2.85088 17.5835,-5.51788 l 11.45087,-4.84909 -5.66781,-10.96675 c -4.50796,-8.72254 -5.8908,-17.01038 -6.75752,-40.49997 l -1.08971,-29.53323 15.85404,-14.45727 c 19.10462,-17.42147 40.1201,-24.81394 48.29465,-16.98826 2.49248,2.38611 3.20463,1.90604 3.20463,-2.16032 0,-16.60822 -27.80145,-17.79032 -51.79569,-2.20232 l -9.70025,6.30183 1.70836,-6.97748 c 4.11992,-16.82705 21.27478,-56.80063 30.85485,-71.89674 7.9476,-12.5237 9.62445,-16.96511 7.00565,-18.55569 -1.89358,-1.15011 73.1677,-2.10872 166.80284,-2.13025 l 170.24572,-0.0392 0,19.568 c 0,19.43825 0.0665,19.6228 10.01445,27.83278 38.60641,31.8613 49.97079,103.76373 24.29242,153.69783 -10.59182,20.59681 -33.33683,43.17019 -38.98045,38.68631 -3.26965,-2.59777 -3.11193,-3.5181 1.09428,-6.38522 13.12395,-8.94583 23.4469,-21.36797 32.37907,-38.96343 9.24452,-18.21073 9.8601,-20.99041 10.78749,-48.71306 0.88237,-26.37694 0.28126,-31.3229 -5.84547,-48.0965 -7.56954,-20.72377 -21.08969,-39.96623 -33.56698,-47.77403 -7.87037,-4.92496 -8.17132,-5.7951 -8.17869,-23.64807 l -0.008,-18.53497 -161.0643,0 -161.06431,0 -5.84326,7.56612 c -3.21379,4.16137 -5.84325,8.16592 -5.84325,8.89901 0,0.73309 26.73859,1.64251 59.41909,2.02093 l 59.41909,0.68805 -10.01445,6.00476 c -11.13121,6.67437 -13.71756,15.72589 -4.49345,15.72589 4.00394,0 5.14145,1.22935 4.13974,4.47396 -0.75971,2.46068 -1.71103,24.75328 -2.11407,49.53912 -0.77124,47.43172 0.48991,53.36192 11.3483,53.36192 21.05343,0 38.92781,-31.74132 36.70378,-65.17856 -1.4639,-22.00882 -8.87024,-27.87213 -26.22302,-20.75972 -3.43552,1.40812 -3.88553,-1.91154 -3.16105,-23.31931 0.46462,-13.72863 2.05262,-26.1116 3.52891,-27.5177 1.79328,-1.70804 2.39928,-1.28378 1.82578,1.27827 -0.74782,3.3409 11.0942,3.92141 91.94222,4.50709 l 92.80061,0.67226 0,14.96643 c 0,14.58396 0.26817,15.13633 10.4944,21.6149 44.55342,28.22572 49.9659,108.46292 9.96873,147.78081 -8.09456,7.95709 -8.97981,9.94096 -6.11151,13.69617 3.07339,4.02375 4.12809,3.67291 12.60154,-4.19179 5.08609,-4.72069 11.40863,-11.45919 14.05009,-14.97444 4.74544,-6.31524 4.74915,-6.30001 0.31117,1.27827 -2.47033,4.2183 -9.00721,11.79247 -14.5264,16.83148 -9.87957,9.02 -10.08976,9.07936 -13.57803,3.83482 -1.94867,-2.92986 -5.53556,-12.21246 -7.97083,-20.62801 l -4.42773,-15.301 -22.43753,-6.82281 c -55.75906,-16.95525 -116.32121,-19.32065 -163.97511,-6.40444 -23.48582,6.36564 -72.39764,23.03672 -89.9886,30.67165 -74.46204,32.31847 -126.3809,43.8725 -164.06585,36.51126 z m 151.9455,-59.29781 c 17.76027,-24.2448 12.32536,-68.89942 -9.28307,-76.27207 -20.45761,-6.98 -40.65559,14.75574 -42.50954,45.74598 -0.93803,15.67981 0.54375,21.22404 8.47312,31.70305 7.93461,10.48593 8.45231,10.7214 21.92161,9.97064 12.7363,-0.70991 14.37861,-1.56551 21.39788,-11.1476 z m -30.21348,-10.45556 c -3.58909,-10.41091 -1.89355,-34.74895 3.16064,-45.36826 3.51646,-7.38841 10.5857,-8.68287 15.63165,-2.86236 4.49332,5.18305 3.72465,37.48917 -1.15818,48.67668 -5.33832,12.23111 -13.33347,12.02887 -17.63411,-0.44606 z m 80.20563,-3.0198 c 15.34063,-14.68591 24.09555,-62.34719 14.66092,-79.8131 -4.72626,-8.74951 -15.13109,-10.20539 -23.16874,-3.24186 -4.79813,4.15692 -4.91424,3.79335 -3.46997,-10.86533 0.82185,-8.34138 2.07032,-21.206 2.7744,-28.58803 1.22695,-12.86444 -2.05752,-18.46584 -5.24679,-8.94792 -2.09311,6.24663 -12.58924,17.26921 -18.41944,19.34329 -6.18707,2.20104 -4.71179,10.98663 1.66851,9.93635 4.11565,-0.67748 4.48143,1.26128 3.3765,17.89583 -3.18326,47.9231 -2.85316,83.04503 0.82039,87.28599 5.77062,6.66193 18.37086,5.25968 27.00422,-3.00522 z m -14.68428,-13.27486 c -2.88804,-4.4735 1.83104,-48.15469 5.72009,-52.94723 3.48541,-4.29507 3.86088,-4.27322 7.67057,0.44645 4.61514,5.7175 4.99665,15.73981 1.22224,32.10735 -4.36902,18.94587 -10.2494,27.1524 -14.6129,20.39343 z m 157.35583,-15.28034 c 1.82474,0 6.2311,-2.96974 9.79192,-6.59944 l 6.47417,-6.59943 -6.79189,1.63085 c -4.78178,1.14819 -8.93118,0.0199 -14.02023,-3.81231 -8.8011,-6.62747 -9.09131,-9.61546 -1.21968,-12.55728 7.75565,-2.89848 22.25868,-17.7083 24.5862,-25.10628 8.08976,-25.71315 -10.49739,-40.72769 -30.48589,-24.62628 -12.84197,10.34464 -17.05168,20.34552 -17.2721,41.03297 -0.21044,19.75263 4.32256,31.00374 16.70496,35.32602 4.7726,1.66595 0,0 4.7726,1.66595 l 2.32036,0.80799 c 1.80129,-0.34503 3.31484,-1.16275 5.13958,-1.16275 z m -12.93091,-45.37871 c 2.16358,-11.81218 7.9866,-21.09152 13.23543,-21.09152 6.55017,0 4.71937,14.06509 -2.96946,22.81277 -9.25512,10.52964 -12.41293,10.00018 -10.26597,-1.72125 z m 73.59553,46.0609 c 9.53034,-5.38944 15.19153,-20.58023 11.4576,-30.74447 -1.37,-3.72927 -7.88853,-10.72172 -14.48565,-15.53876 -8.82978,-6.44728 -11.99475,-10.52471 -11.99475,-15.45286 0,-5.04521 1.5176,-6.90055 6.15966,-7.53049 5.49094,-0.74514 5.80758,-0.2962 2.91669,4.1353 -4.53489,6.95158 -1.22254,13.31814 6.92907,13.31814 12.02653,0 14.55709,-18.96513 3.63407,-27.23543 -12.1369,-9.18938 -28.94329,-5.13317 -35.76661,8.63223 -5.94338,11.99019 -3.40107,19.11533 10.79363,30.2504 9.94946,7.80487 12.00979,10.91275 12.00979,18.11588 0,6.82724 -1.45517,9.32948 -6.77495,11.64989 -5.62906,2.45531 -7.54871,2.19582 -11.34972,-1.53415 -3.74628,-3.67629 -3.84934,-4.39802 -0.56898,-3.98531 8.40993,1.05807 10.68209,-0.30396 10.68209,-6.40326 0,-5.90565 -6.46528,-11.59441 -13.17705,-11.59441 -1.56535,0 -5.24955,2.30089 -8.18712,5.11309 -12.92233,12.37083 -1.10645,33.23512 18.82172,33.23512 6.08585,0 14.59109,-1.99391 18.90051,-4.43091 z m -96.73252,-1.6619 c 2.36662,-2.72989 2.12274,-3.88265 -1.06941,-5.05531 -3.35214,-1.23145 -3.89586,-4.79734 -2.87166,-18.83354 1.91444,-26.23674 2.48195,-59.43777 1.03958,-60.81859 -0.70537,-0.67527 -2.84699,1.57076 -4.75914,4.99116 -1.91217,3.42041 -6.8313,7.54917 -10.9314,9.17501 -5.5898,2.21655 -7.17732,4.33522 -6.34575,8.46893 0.60995,3.03206 2.38625,5.92042 3.94733,6.41857 1.90739,0.60867 2.24476,8.64657 1.02863,24.50705 -2.037,26.56568 0.45342,34.68298 10.64079,34.68298 3.44044,0 7.63492,-1.59132 9.32103,-3.53626 z m -1.36215,-97.65646 c 4.63365,-11.55976 -2.08047,-20.45896 -10.43036,-13.8249 -4.79308,3.80812 -5.14559,10.60939 -0.76716,14.80096 4.44302,4.2534 9.26999,3.83265 11.19752,-0.97606 z M 87.404718,850.1412 l -6.474182,-7.0305 7.343933,6.19787 c 6.864011,5.79285 8.568601,7.86314 6.474181,7.86314 -0.478362,0 -3.783132,-3.16373 -7.343932,-7.03051 z M 76.924755,836.71933 c -1.572141,-2.81221 -2.257573,-5.1131 -1.52318,-5.1131 0.734393,0 2.62156,2.30089 4.193701,5.1131 1.572141,2.8122 2.257573,5.11309 1.523179,5.11309 -0.734393,0 -2.621559,-2.30089 -4.1937,-5.11309 z m -8.152377,-14.41558 c -1.473527,-3.71026 -2.183594,-7.22033 -1.577928,-7.80014 0.605666,-0.57982 2.379375,2.45585 3.941577,6.74593 3.472737,9.53674 1.376493,10.47169 -2.363649,1.05421 z M 643.157,822.65832 c 0,-1.40611 1.16491,-4.28222 2.58872,-6.39137 1.42382,-2.10916 2.58873,-2.68438 2.58873,-1.27828 0,1.4061 -1.16491,4.28222 -2.58873,6.39137 -1.42381,2.10915 -2.58872,2.68438 -2.58872,1.27828 z M 61.112458,796.87979 c 0.128132,-2.97823 0.760941,-3.58402 1.613441,-1.54458 0.771436,1.84551 0.676561,4.05053 -0.210838,4.90005 -0.887392,0.84952 -1.518567,-0.66044 -1.402603,-3.35547 z m 590.395952,-1.06522 c 0,-3.51526 0.60616,-4.95332 1.34699,-3.19569 0.74083,1.75763 0.74083,4.63374 0,6.39137 -0.74083,1.75763 -1.34699,0.31957 -1.34699,-3.19568 z M 59.05862,774.08391 c 0.01498,-8.43661 0.513543,-11.57973 1.107898,-6.98472 0.594355,4.59501 0.582091,11.49769 -0.02725,15.33929 -0.609344,3.84159 -1.095634,0.082 -1.080648,-8.35457 z m 595.46246,0 c 0.0214,-7.0305 0.5387,-9.60319 1.15252,-5.71708 0.61385,3.88611 0.59742,9.63834 -0.0363,12.78274 -0.63401,3.14439 -1.13623,-0.0351 -1.1162,-7.06566 z m -252.1507,-4.47396 c -1.12671,-10.05955 1.31072,-44.78374 3.40965,-48.5744 3.60621,-6.51289 9.93695,-5.47397 11.88336,1.95016 2.12074,8.08903 -0.84076,27.48949 -6.12698,40.13717 -3.99138,9.54976 -8.46814,12.71807 -9.16603,6.48707 z M 61.323291,747.24016 c 0,-3.51525 0.606136,-4.95331 1.346973,-3.19568 0.740835,1.75762 0.740835,4.63374 0,6.39137 -0.740837,1.75762 -1.346973,0.31956 -1.346973,-3.19569 z m 589.974309,1.06523 c 0.12819,-2.97823 0.76094,-3.58402 1.61343,-1.54458 0.77143,1.84551 0.67657,4.05053 -0.21071,4.90005 -0.88741,0.84952 -1.51856,-0.66044 -1.40261,-3.35547 z m -2.67052,-10.22619 c 0.12819,-2.97823 0.76094,-3.58402 1.61342,-1.54458 0.77144,1.84551 0.67658,4.05053 -0.2107,4.90005 -0.88741,0.84952 -1.51856,-0.66044 -1.40261,-3.35547 z M 68.913192,722.58941 c 0,-1.3717 1.868897,-4.72717 4.153103,-7.4566 3.915993,-4.67926 3.971575,-4.59769 0.973528,1.42878 -3.893118,7.82567 -5.126631,9.27602 -5.126631,6.02782 z M 632.23532,704.81268 c -3.26397,-5.0558 -10.75269,-12.53371 -16.64162,-16.61756 -5.88893,-4.08386 -9.54142,-7.4252 -8.11665,-7.4252 4.3616,0 23.2921,16.84721 28.40521,25.27921 6.70886,11.06362 3.61709,10.01538 -3.64694,-1.23645 z m -550.27603,-3.1783 c 2.969024,-3.99166 7.509457,-8.88105 10.089851,-10.86532 2.580393,-1.98427 0.632764,1.28163 -4.328071,7.25756 -10.188056,12.27276 -13.96675,14.63881 -5.76178,3.60776 z m 19.49499,-17.32514 c 2.50171,-2.69849 4.95661,-10.52371 5.52731,-17.61884 l 1.0267,-12.76423 0.48136,14.08518 c 0.41439,12.12576 -0.35452,14.57676 -5.52732,17.61884 -5.782208,3.40049 -5.839044,3.3507 -1.50805,-1.32095 z m 44.39796,-38.68696 c 21.01907,-0.43246 54.66764,-0.43141 74.77459,0.002 20.10695,0.43375 2.90953,0.78759 -38.2165,0.7863 -41.12602,-10e-4 -57.57716,-0.35618 -36.55809,-0.78865 z m 114.67083,0.21937 c 1.83599,-0.70921 4.84032,-0.70921 6.6763,0 1.83599,0.70922 0.33382,1.28949 -3.33815,1.28949 -3.67196,0 -5.17413,-0.58027 -3.33815,-1.28949 z m 32.21316,-0.0533 c 1.92778,-0.73851 4.23111,-0.64768 5.1185,0.20183 0.88739,0.84952 -0.68989,1.45376 -3.50506,1.34275 -3.111,-0.12267 -3.7438,-0.72846 -1.61344,-1.54458 z m 36.02383,-0.1611 c 14.39697,-0.46056 37.22992,-0.45855 50.7399,0.004 13.50998,0.46301 1.73066,0.83984 -26.17628,0.83738 -27.90695,-0.002 -38.96058,-0.38129 -24.56362,-0.84186 z m 94.66479,0.0146 c 9.17992,-0.49922 24.2016,-0.49922 33.38151,0 9.17992,0.49922 1.66908,0.90767 -16.69075,0.90767 -18.35983,0 -25.87067,-0.40845 -16.69076,-0.90767 z m 58.91837,0.14645 c 1.92777,-0.73851 4.23109,-0.64769 5.11851,0.20183 0.88739,0.84952 -0.6899,1.45376 -3.50506,1.34275 -3.11102,-0.12267 -3.7438,-0.72846 -1.61345,-1.54458 z m 25.31411,-0.15182 c 9.97538,-0.49323 25.59793,-0.48957 34.71677,0.008 9.11882,0.4977 0.95714,0.90125 -18.13708,0.89678 -19.09423,-0.004 -26.5551,-0.41168 -16.57969,-0.90491 z m 54.63461,0.20508 c 1.83599,-0.70921 4.84032,-0.70921 6.67631,0 1.83598,0.70922 0.33381,1.28949 -3.33816,1.28949 -3.67196,0 -5.17413,-0.58027 -3.33815,-1.28949 z m 18.74148,-0.15966 c 4.79986,-0.56898 12.01027,-0.55724 16.02313,0.0261 4.01285,0.58334 0.0857,1.04888 -8.72703,1.03453 -8.81272,-0.0143 -12.09596,-0.49163 -7.2961,-1.06062 z"
       id="path3420"
       inkscape:connector-curvature="0"
       sodipodi:nodetypes="sssscccssscssssscccccssscccscssccccscccsscsscccccccssssccsccssssccccccsccccccccsssssssssssssssssssscssscssssssccsssssccsssssscsssssssssssssssssssssssscscccsssssssssssscsccccsssssscccsscssssssscsscsscsssssssssssscsscsssscsssscsssssssssccccssscssssssssssscsssssssssscsssccssssssssssssssssssssssssssscscsssssssccccssssssssssssssssssssssssssssssssssssssscssssssssssssssssssssssssssssscscccssssssssscsccccscccssssssssssssssscsssccsccsssssssscccccssssscsscccccsssscsscc" />
  </g>
</svg>
